<svg x="0" y="0" width="48" height="48" version="1.1" xmlns="http://www.w3.org/2000/svg" xmlns:xlink="http://www.w3.org/1999/xlink"><defs><linearGradient x1="12.46915" y1="11.68966" x2="53.56207" y2="54.34156" gradientUnits="userSpaceOnUse" id="color-1"><stop offset="0.23" stop-color="#000000" stop-opacity="0.77"></stop><stop offset="1" stop-color="#000000" stop-opacity="0"></stop></linearGradient><filter id="dropshadow"><feColorMatrix type="matrix" values="0 0 0 0 .05  0 0 0 0 .15  0 0 0 0 .1  0 0 0 .8 0"></feColorMatrix> <feOffset dx="0" dy="1"></feOffset> <feGaussianBlur stdDeviation="1"></feGaussianBlur> <feComposite in="SourceGraphic"></feComposite></filter></defs><g fill="none" stroke="none" stroke-width="none" stroke-linecap="butt" stroke-linejoin="miter" stroke-miterlimit="none" stroke-dasharray="" stroke-dashoffset="0" font-family="none" font-weight="normal" font-size="none" text-anchor="start" mix-blend-mode="normal"><g id="Capa_1" fill="#000000" stroke="none" stroke-width="1" stroke-miterlimit="4" font-family="&quot;Open Sans&quot;, sans-serif" font-size="14"><g></g><g></g><g></g><g></g><g></g><g></g><g></g><g></g><g></g><g></g><g></g><g></g><g></g><g></g><g></g></g><path d="M3,24c0,-11.59798 9.40202,-21 21,-21c11.59798,0 21,9.40202 21,21c0,11.59798 -9.40202,21 -21,21c-11.59798,0 -21,-9.40202 -21,-21z" fill="#2098d1" stroke-width="1" stroke-miterlimit="10" font-family="sans-serif" font-size="12" filter="url(#dropshadow)"></path><path d="M14.30874,18.16542l-0.73656,-0.73656c0,0 0,0 0,0.00001l-0.267,-0.267c0.0006,0.0006 0.00121,0.00121 0.00182,0.00181l-0.00182,-0.00182c-0.02105,-0.02104 -0.04021,-0.04426 -0.05715,-0.06948l-0.00002,-0.00002c-0.08673,-0.12934 -0.10336,-0.29339 -0.04436,-0.4375l0.9363,-2.2855c0.0719,-0.17551 0.24274,-0.29015 0.43239,-0.29015l0.61575,0c0,0 0.93462,0.93462 0.93462,0.93462l0.00001,0l-0.93462,-0.93462c0.5259,-0.8297 1.1158,-1.58545 1.75753,-2.24749l0.7925,0.7925l0.00001,0c0,0 -0.79251,-0.79251 -0.79251,-0.79251c0.08798,-0.09077 0.20903,-0.14205 0.33551,-0.14205l13.43841,0c0.12412,0 0.24296,0.04938 0.33056,0.13698c0,0 2.25257,2.25257 2.25257,2.25257l0.1251,0c0.12644,0 0.24451,0.05095 0.33048,0.13692l11.19507,11.19507c-0.69495,10.47351 -9.06852,18.84712 -19.54202,19.54212c0,0 -11.16952,-11.16952 -11.16952,-11.16952c-0.04298,-0.04299 -0.07794,-0.09473 -0.10191,-0.15323l-0.93623,-2.28542l-0.00001,-0.00001c-0.05906,-0.14417 -0.04243,-0.30816 0.04436,-0.4375c0,0 1.33207,1.33207 1.33207,1.33207l-0.00001,-0.00002c0,0 -1.33207,-1.33207 -1.33207,-1.33207c0.08361,-0.12454 0.2218,-0.20037 0.37096,-0.20585c-0.75276,-2.07659 -1.14982,-4.3781 -1.14982,-6.7021c0,-2.275 0.38062,-4.52857 1.10303,-6.57082l0.73656,0.73656c0,0 0,-0.00001 0,-0.00001z" fill="url(#color-1)" stroke-width="1" stroke-miterlimit="10" font-family="sans-serif" font-size="12"></path><path d="M34.75199,30.90765c0.08679,0.12934 0.10342,0.29339 0.04436,0.4375l-0.93624,2.28544c-0.0719,0.17551 -0.24274,0.29015 -0.43239,0.29015l-0.61507,0c-0.52541,0.82983 -1.11537,1.58564 -1.75778,2.24774c-0.08804,0.09065 -0.20903,0.14187 -0.33538,0.14187l-13.43841,0c-0.12648,0 -0.24747,-0.05121 -0.33551,-0.14205c-0.64173,-0.6621 -1.23163,-1.41785 -1.75753,-2.24755l-0.61575,0c-0.18965,0 -0.36049,-0.11464 -0.43239,-0.29015l-0.93624,-2.28544c-0.05906,-0.14417 -0.04243,-0.30816 0.04436,-0.4375c0.08361,-0.12455 0.2218,-0.20037 0.37096,-0.20585c-0.75276,-2.07659 -1.14982,-4.3781 -1.14982,-6.7021c0,-2.32363 0.39706,-4.62489 1.14982,-6.70148c-0.14922,-0.00548 -0.28735,-0.08131 -0.37096,-0.20585c-0.08673,-0.12934 -0.10336,-0.29339 -0.04436,-0.4375l0.9363,-2.2855c0.0719,-0.17551 0.24274,-0.29015 0.43239,-0.29015l0.61575,0c0.52591,-0.8297 1.1158,-1.58545 1.75753,-2.24749c0.08797,-0.09078 0.20903,-0.14205 0.33551,-0.14205l13.43841,0c0.12641,0 0.24735,0.05121 0.33538,0.14187c0.64242,0.6621 1.23237,1.41791 1.75778,2.24768l0.61507,0c0.18965,0 0.36049,0.11464 0.43239,0.29015l0.93637,2.28556c0.05906,0.14411 0.04243,0.30816 -0.04436,0.4375c-0.08361,0.12455 -0.22186,0.20043 -0.37108,0.20585c0.75269,2.07659 1.14976,4.37785 1.14976,6.70142c0,2.324 -0.39706,4.62551 -1.14982,6.7021c0.14922,0.00542 0.28747,0.08131 0.37096,0.20585z M26.46394,30.70073c0.23127,-2.05871 0.35308,-4.36533 0.35308,-6.70105c0,-2.33528 -0.1218,-4.64171 -0.35308,-6.70036l-4.92787,0c-0.19258,1.70831 -0.30722,3.54485 -0.34149,5.47185c1.00341,0.14629 1.77654,1.01207 1.77654,2.05541c0,1.02565 -0.7474,1.87959 -1.72601,2.04712c0.05763,1.33337 0.15539,2.61671 0.29152,3.82702z M27.75157,23.99963c0,2.33079 -0.12006,4.63448 -0.34766,6.70105l3.32921,0c0.57507,-2.05715 0.87867,-4.36533 0.87867,-6.70105c0,-2.33528 -0.30361,-4.64321 -0.87867,-6.70036l-3.32921,0c0.2276,2.0665 0.34766,4.37 0.34766,6.70036z M17.26681,30.7008l3.32909,0c-0.13557,-1.22938 -0.23196,-2.53141 -0.28834,-3.88142c-0.86098,-0.2537 -1.49143,-1.05076 -1.49143,-1.99279c0,-0.92409 0.60665,-1.70887 1.44246,-1.97784c0.03202,-1.95136 0.14542,-3.81369 0.33731,-5.54942l-3.32909,0c-0.57507,2.05709 -0.87867,4.36502 -0.87867,6.70036c0,2.33572 0.30361,4.64389 0.87867,6.70105z M13.40377,23.99963c0,2.33584 0.41906,4.64495 1.21219,6.70105l1.68258,0c-0.55307,-2.07385 -0.8449,-4.37586 -0.8449,-6.70105c0,-2.32475 0.29177,-4.62651 0.8449,-6.70036l-1.68258,0c-0.79313,2.05609 -1.21225,4.36496 -1.21219,6.70036z M34.59623,23.99969c0,-2.3354 -0.41906,-4.64427 -1.21219,-6.70036l-1.68258,0c0.55313,2.07379 0.84497,4.37555 0.84497,6.70036c0,2.32519 -0.29183,4.62713 -0.84497,6.70105l1.68258,0c0.79313,-2.05609 1.21219,-4.36521 1.21219,-6.70105z M14.33247,16.36477l19.33518,0l-0.55338,-1.35094l-18.22835,0z M33.66765,31.63529l-19.33518,0l0.55338,1.35088l18.22841,0z M25.63916,35.37578c0.119,-0.44703 0.23121,-0.93387 0.33538,-1.45505l-3.94902,0c0.10417,0.52117 0.21638,1.00802 0.33538,1.45505z M22.36084,12.62422c-0.119,0.44703 -0.23121,0.93387 -0.33538,1.45505l3.94902,0c-0.10417,-0.52117 -0.21638,-1.00802 -0.33538,-1.45505z M22.03649,24.82659c0,-0.63021 -0.5127,-1.1429 -1.1429,-1.1429c-0.63021,0 -1.1429,0.5127 -1.1429,1.1429c0,0.63021 0.5127,1.1429 1.1429,1.1429c0.63027,0 1.1429,-0.5127 1.1429,-1.1429z M28.66208,35.37578c0.30087,-0.44516 0.58373,-0.93257 0.84615,-1.45505l-2.58144,0c-0.1,0.51662 -0.20778,1.00316 -0.32236,1.45505z M28.66202,12.62422l-2.05765,0c0.11458,0.45189 0.22236,0.93842 0.32236,1.45505l2.58144,0c-0.26236,-0.52248 -0.54522,-1.00989 -0.84615,-1.45505z M19.33841,35.37578l2.05715,0c-0.11458,-0.45189 -0.22236,-0.93842 -0.32236,-1.45505l-2.58113,0c0.2633,0.52398 0.54622,1.01138 0.84634,1.45505z M19.33841,12.62422c-0.30018,0.44373 -0.58304,0.93113 -0.84634,1.45505l2.58113,0c0.1,-0.51662 0.20778,-1.00316 0.32236,-1.45505z M31.69162,33.92073l-1.14515,0c-0.24031,0.51494 -0.49987,1.00104 -0.776,1.45505l0.74908,0c0.41625,-0.44354 0.80796,-0.93113 1.17206,-1.45505z M30.51962,12.62422l-0.74908,0c0.27607,0.45401 0.53569,0.94011 0.77593,1.45505l1.14515,0c-0.3641,-0.52398 -0.75581,-1.01151 -1.172,-1.45505z M17.48126,35.37578l0.74858,0c-0.27551,-0.45289 -0.53513,-0.93898 -0.77618,-1.45505l-1.14421,0c0.36435,0.52391 0.756,1.01151 1.17181,1.45505z M16.3095,14.07927l1.14421,0c0.24099,-0.51606 0.50061,-1.00216 0.77612,-1.45505l-0.74858,0c-0.41582,0.44354 -0.80746,0.93107 -1.17175,1.45505z" fill="#ffffff" stroke="none" stroke-width="0" stroke-miterlimit="4" font-family="&quot;Open Sans&quot;, sans-serif" font-size="14"></path></g></svg>