<?xml version="1.0" encoding="UTF-8" standalone="no"?>
<!-- Generator: Adobe Illustrator 19.0.0, SVG Export Plug-In . SVG Version: 6.00 Build 0)  -->

<svg
   xmlns:dc="http://purl.org/dc/elements/1.1/"
   xmlns:cc="http://creativecommons.org/ns#"
   xmlns:rdf="http://www.w3.org/1999/02/22-rdf-syntax-ns#"
   xmlns:svg="http://www.w3.org/2000/svg"
   xmlns="http://www.w3.org/2000/svg"
   xmlns:sodipodi="http://sodipodi.sourceforge.net/DTD/sodipodi-0.dtd"
   xmlns:inkscape="http://www.inkscape.org/namespaces/inkscape"
   version="1.1"
   id="Capa_1"
   x="0px"
   y="0px"
   viewBox="0 0 33 33"
   style="enable-background:new 0 0 33 33;"
   xml:space="preserve"
   inkscape:version="0.91 r13725"
   sodipodi:docname="beer.svg"><metadata
     id="metadata4852"><rdf:RDF><cc:Work
         rdf:about=""><dc:format>image/svg+xml</dc:format><dc:type
           rdf:resource="http://purl.org/dc/dcmitype/StillImage" /><dc:title></dc:title></cc:Work></rdf:RDF></metadata><defs
     id="defs4850" /><sodipodi:namedview
     pagecolor="#000000"
     bordercolor="#666666"
     borderopacity="1"
     objecttolerance="10"
     gridtolerance="10"
     guidetolerance="10"
     inkscape:pageopacity="0"
     inkscape:pageshadow="2"
     inkscape:window-width="820"
     inkscape:window-height="590"
     id="namedview4848"
     showgrid="false"
     inkscape:zoom="12.06827"
     inkscape:cx="2.4072817"
     inkscape:cy="14.760851"
     inkscape:window-x="0"
     inkscape:window-y="0"
     inkscape:window-maximized="0"
     inkscape:current-layer="Capa_1" /><g
     id="g4800"
     style="fill:#ffffff"
     inkscape:export-filename="C:\Git\chadmarchpdx\public\images\beer.png"
     inkscape:export-xdpi="400"
     inkscape:export-ydpi="400"><g
       id="g4802"
       style="fill:#ffffff"><path
         style="fill:#ffffff"
         d="M 13.4375 0 C 10.4125 0 7.9356094 2.2490781 7.5996094 5.2050781 L 7.3613281 5.2050781 C 5.5533281 5.2050781 4.0800781 6.676375 4.0800781 8.484375 C 4.0800781 10.019785 5.146384 11.30319 6.5742188 11.658203 L 6.5742188 28.650391 C 6.5742188 31.048391 8.5268284 33 10.923828 33 L 20.136719 33 C 22.533719 33 24.484375 31.049344 24.484375 28.652344 L 24.484375 25.574219 L 26.095703 25.574219 C 27.651703 25.574219 28.919922 24.308953 28.919922 22.751953 L 28.919922 18.058594 C 28.919922 16.501594 27.652703 15.234375 26.095703 15.234375 L 24.484375 15.234375 L 24.484375 11.658203 C 25.912399 11.303106 26.978516 10.01992 26.978516 8.484375 C 26.978516 6.676375 25.506266 5.203125 23.697266 5.203125 L 23.451172 5.203125 C 23.128172 3.317125 21.494969 1.9003906 19.542969 1.9003906 C 19.027969 1.9003906 18.520203 2.0058906 18.033203 2.2128906 C 16.919203 0.81889066 15.2325 1.1842379e-015 13.4375 0 z M 13.4375 1 C 15.0475 1 16.553797 1.7959531 17.466797 3.1269531 C 17.610797 3.3379531 17.896141 3.40525 18.119141 3.28125 C 18.578141 3.02925 19.057969 2.9003906 19.542969 2.9003906 C 21.122969 2.9003906 22.423859 4.1425156 22.505859 5.7285156 C 22.519859 5.9955156 22.738859 6.203125 23.005859 6.203125 L 23.697266 6.203125 C 24.955266 6.203125 25.978516 7.226375 25.978516 8.484375 C 25.978516 9.742375 24.955266 10.763672 23.697266 10.763672 L 7.3613281 10.763672 C 6.1033281 10.763672 5.0800781 9.742375 5.0800781 8.484375 C 5.0800781 7.226375 6.1033281 6.203125 7.3613281 6.203125 L 8.0644531 6.203125 C 8.3344531 6.203125 8.5554531 5.9907031 8.5644531 5.7207031 C 8.6514531 3.0727031 10.7915 1 13.4375 1 z M 7.5742188 11.765625 L 23.484375 11.765625 L 23.484375 15.734375 L 23.484375 25.074219 L 23.484375 28.652344 C 23.484375 30.499344 21.983719 32.001953 20.136719 32.001953 L 10.923828 32.001953 C 9.0768284 32.001953 7.5742188 30.499344 7.5742188 28.652344 L 7.5742188 11.765625 z M 11.376953 15.191406 C 11.100953 15.191406 10.876953 15.415406 10.876953 15.691406 L 10.876953 27.865234 C 10.876953 28.141234 11.100953 28.365234 11.376953 28.365234 C 11.652953 28.365234 11.876953 28.142234 11.876953 27.865234 L 11.876953 15.691406 C 11.876953 15.415406 11.652953 15.191406 11.376953 15.191406 z M 15.529297 15.191406 C 15.253297 15.191406 15.029297 15.415406 15.029297 15.691406 L 15.029297 27.865234 C 15.029297 28.141234 15.253297 28.365234 15.529297 28.365234 C 15.806297 28.365234 16.029297 28.142234 16.029297 27.865234 L 16.029297 15.691406 C 16.029297 15.415406 15.805297 15.191406 15.529297 15.191406 z M 19.683594 15.191406 C 19.407594 15.191406 19.183594 15.415406 19.183594 15.691406 L 19.183594 27.865234 C 19.183594 28.141234 19.407594 28.365234 19.683594 28.365234 C 19.959594 28.365234 20.183594 28.142234 20.183594 27.865234 L 20.183594 15.691406 C 20.183594 15.415406 19.959594 15.191406 19.683594 15.191406 z M 24.484375 16.234375 L 26.095703 16.234375 C 27.100703 16.234375 27.919922 17.052594 27.919922 18.058594 L 27.919922 22.751953 C 27.919922 23.756953 27.100703 24.574219 26.095703 24.574219 L 24.484375 24.574219 L 24.484375 16.234375 z "
         id="path4804" /><g
         id="g4808"
         style="fill:#ffffff" /></g></g><g
     id="g4818" /><g
     id="g4820" /><g
     id="g4822" /><g
     id="g4824" /><g
     id="g4826" /><g
     id="g4828" /><g
     id="g4830" /><g
     id="g4832" /><g
     id="g4834" /><g
     id="g4836" /><g
     id="g4838" /><g
     id="g4840" /><g
     id="g4842" /><g
     id="g4844" /><g
     id="g4846" /></svg>