<?xml version="1.0" encoding="UTF-8" standalone="no"?>
<svg
   xmlns:dc="http://purl.org/dc/elements/1.1/"
   xmlns:cc="http://creativecommons.org/ns#"
   xmlns:rdf="http://www.w3.org/1999/02/22-rdf-syntax-ns#"
   xmlns:svg="http://www.w3.org/2000/svg"
   xmlns="http://www.w3.org/2000/svg"
   xmlns:sodipodi="http://sodipodi.sourceforge.net/DTD/sodipodi-0.dtd"
   xmlns:inkscape="http://www.inkscape.org/namespaces/inkscape"
   x="0"
   y="0"
   width="48"
   height="48"
   version="1.1"
   id="svg2"
   inkscape:version="0.91 r13725"
   sodipodi:docname="icon.svg"
   inkscape:export-filename="C:\Git\chadmarchpdx\public\images\home-active.png"
   inkscape:export-xdpi="133.92999"
   inkscape:export-ydpi="133.92999">
  <metadata
     id="metadata141">
    <rdf:RDF>
      <cc:Work
         rdf:about="">
        <dc:format>image/svg+xml</dc:format>
        <dc:type
           rdf:resource="http://purl.org/dc/dcmitype/StillImage" />
      </cc:Work>
    </rdf:RDF>
  </metadata>
  <sodipodi:namedview
     pagecolor="#ffffff"
     bordercolor="#666666"
     borderopacity="1"
     objecttolerance="10"
     gridtolerance="10"
     guidetolerance="10"
     inkscape:pageopacity="0"
     inkscape:pageshadow="2"
     inkscape:window-width="874"
     inkscape:window-height="582"
     id="namedview139"
     showgrid="false"
     inkscape:zoom="4.9166667"
     inkscape:cx="-8.9491525"
     inkscape:cy="24"
     inkscape:window-x="0"
     inkscape:window-y="0"
     inkscape:window-maximized="0"
     inkscape:current-layer="svg2" />
  <defs
     id="defs4">
    <linearGradient
       x1="11.76678"
       y1="11.68966"
       x2="52.76414"
       y2="52.84125"
       gradientUnits="userSpaceOnUse"
       id="color-1">
      <stop
         offset="0.23"
         stop-color="#000000"
         stop-opacity="0.77"
         id="stop7" />
      <stop
         offset="1"
         stop-color="#000000"
         stop-opacity="0"
         id="stop9" />
    </linearGradient>
    <filter
       id="dropshadow">
      <feColorMatrix
         type="matrix"
         values="0 0 0 0 .05  0 0 0 0 .15  0 0 0 0 .1  0 0 0 .8 0"
         id="feColorMatrix12" />
      <feOffset
         dx="0"
         dy="1"
         id="feOffset14" />
      <feGaussianBlur
         stdDeviation="1"
         id="feGaussianBlur16"
         result="result1" />
      <feComposite
         in="SourceGraphic"
         id="feComposite18"
         in2="result1" />
    </filter>
  </defs>
  <g
     fill="none"
     stroke="none"
     stroke-width="none"
     stroke-linecap="butt"
     stroke-linejoin="miter"
     stroke-miterlimit="none"
     stroke-dasharray=""
     stroke-dashoffset="0"
     font-family="none"
     font-weight="normal"
     font-size="none"
     text-anchor="start"
     mix-blend-mode="normal"
     id="g20">
    <g
       id="Capa_1"
       fill="#000000"
       stroke="none"
       stroke-width="1"
       stroke-miterlimit="4"
       font-family="&quot;Open Sans&quot;, sans-serif"
       font-size="14">
      <g
         id="g4195">
        <g
           id="g4197">
          <g
             id="g4791">
            <g
               id="g4203" />
          </g>
        </g>
      </g>
      <g
         id="g4213" />
      <g
         id="g4215" />
      <g
         id="g4217" />
      <g
         id="g4219" />
      <g
         id="g4221" />
      <g
         id="g4223" />
      <g
         id="g4225" />
      <g
         id="g4227" />
      <g
         id="g4229" />
      <g
         id="g4231" />
      <g
         id="g4233" />
      <g
         id="g4235" />
      <g
         id="g4237" />
      <g
         id="g4239" />
      <g
         id="g4241" />
    </g>
    <g
       id="g42"
       fill="#000000"
       stroke="none"
       stroke-width="1"
       stroke-miterlimit="4"
       font-family="&quot;Open Sans&quot;, sans-serif"
       font-size="14">
      <g
         id="g3">
        <g
           id="g5">
          <g
             id="g11" />
        </g>
        <g
           id="g4191" />
      </g>
      <g
         id="g21" />
      <g
         id="g23" />
      <g
         id="g25" />
      <g
         id="g27" />
      <g
         id="g29" />
      <g
         id="g31" />
      <g
         id="g33" />
      <g
         id="g35" />
      <g
         id="g37" />
      <g
         id="g39" />
      <g
         id="g41" />
      <g
         id="g43" />
      <g
         id="g45" />
      <g
         id="g47" />
      <g
         id="g49" />
    </g>
    <g
       id="g63"
       fill="#000000"
       stroke="none"
       stroke-width="1"
       stroke-miterlimit="4"
       font-family="&quot;Open Sans&quot;, sans-serif"
       font-size="14">
      <g
         id="g65">
        <g
           id="g67">
          <g
             id="g69" />
        </g>
      </g>
      <g
         id="g71" />
      <g
         id="g73" />
      <g
         id="g75" />
      <g
         id="g77" />
      <g
         id="g79" />
      <g
         id="g81" />
      <g
         id="g83" />
      <g
         id="g85" />
      <g
         id="g87" />
      <g
         id="g89" />
      <g
         id="g91" />
      <g
         id="g93" />
      <g
         id="g95" />
      <g
         id="g97" />
      <g
         id="g99" />
    </g>
    <g
       id="g101"
       fill="#000000"
       stroke="none"
       stroke-width="1"
       stroke-miterlimit="4"
       font-family="&quot;Open Sans&quot;, sans-serif"
       font-size="14">
      <g
         id="g103" />
      <g
         id="g105" />
      <g
         id="g107" />
      <g
         id="g109" />
      <g
         id="g111" />
      <g
         id="g113" />
      <g
         id="g115" />
      <g
         id="g117" />
      <g
         id="g119" />
      <g
         id="g121" />
      <g
         id="g123" />
      <g
         id="g125" />
      <g
         id="g127" />
      <g
         id="g129" />
      <g
         id="g131" />
    </g>
    <path
       d="M3,24c0,-11.59798 9.40202,-21 21,-21c11.59798,0 21,9.40202 21,21c0,11.59798 -9.40202,21 -21,21c-11.59798,0 -21,-9.40202 -21,-21z"
       fill="#2098d1"
       stroke-width="1"
       stroke-miterlimit="10"
       font-family="sans-serif"
       font-size="12"
       filter="url(#dropshadow)"
       id="path133" />
    <path
       d="M43.55443,31.67205l-3.24553,-3.24553l0,0l3.24553,3.24553c-3.06399,7.80339 -10.66405,13.32794 -19.55443,13.32794c-0.49962,0 -0.99516,-0.01745 -1.48605,-0.05177l-8.63789,-8.63789l0,-10.79277l-1.98554,-1.98554c-0.00372,-0.00373 -0.0074,-0.00755 -0.01102,-0.01145c-0.15862,-0.17084 -0.14849,-0.43786 0.02194,-0.59648l-0.00001,-0.00001l12.09837,-11.23443l11.94404,11.94404c0,0 0,0 0.00001,0l-11.94404,-11.94404l4.21839,3.9172l0,-1.65403l4.21839,0l12.42975,12.42975c-0.2085,1.84627 -0.65639,3.62002 -1.3119,5.28947z"
       fill="url(#color-1)"
       stroke-width="1"
       stroke-miterlimit="10"
       font-family="sans-serif"
       font-size="12"
       id="path135" />
    <path
       d="M36.12051,23.52016c-0.08268,0.08943 -0.19531,0.13457 -0.30879,0.13457c-0.10293,0 -0.20628,-0.03712 -0.28727,-0.11263l-1.40009,-1.30011l0,14.06835l-20.24831,0l0,-14.06793l-1.40009,1.30011c-0.17127,0.15819 -0.43829,0.14849 -0.59648,-0.02194c-0.15861,-0.17085 -0.14849,-0.43787 0.02194,-0.59648l12.09836,-11.23444l4.2184,3.9172l0,-1.65403l4.2184,0l0,5.57082l3.66199,3.40045c0.17042,0.15861 0.18055,0.42564 0.02194,0.59606z M33.28026,35.46666l0,-14.00845l-0.84368,-0.78336l-2.41292,-2.24039l-6.02387,-5.59359l-9.28047,8.61776l0,14.00803l5.90576,0l0,-8.88521c0,-0.68338 0.55556,-1.23894 1.23894,-1.23894l4.27155,0c0.68338,0 1.23894,0.55556 1.23894,1.23894l0,8.88521z M21.46875,35.46666l5.06208,0l0,-8.88521c0,-0.21809 -0.17717,-0.39526 -0.39526,-0.39526l-4.27155,0c-0.21809,0 -0.39526,0.17717 -0.39526,0.39526z M29.06187,16.39022l2.53104,2.35007l0,-3.94378l-2.53104,0z"
       fill="#ffffff"
       stroke="none"
       stroke-width="0"
       stroke-miterlimit="4"
       font-family="&quot;Open Sans&quot;, sans-serif"
       font-size="14"
       id="path137" />
  </g>
</svg>
