<svg x="0" y="0" width="48" height="48" version="1.1" xmlns="http://www.w3.org/2000/svg" xmlns:xlink="http://www.w3.org/1999/xlink"><defs><linearGradient x1="12.30729" y1="8.46611" x2="56.55237" y2="60.39355" gradientUnits="userSpaceOnUse" id="color-1"><stop offset="0.23" stop-color="#000000" stop-opacity="0.77"></stop><stop offset="1" stop-color="#000000" stop-opacity="0"></stop></linearGradient><filter id="dropshadow"><feColorMatrix type="matrix" values="0 0 0 0 .05  0 0 0 0 .15  0 0 0 0 .1  0 0 0 .8 0"></feColorMatrix> <feOffset dx="0" dy="1"></feOffset> <feGaussianBlur stdDeviation="1"></feGaussianBlur> <feComposite in="SourceGraphic"></feComposite></filter></defs><g fill="none" stroke="none" stroke-width="none" stroke-linecap="butt" stroke-linejoin="miter" stroke-miterlimit="none" stroke-dasharray="" stroke-dashoffset="0" font-family="none" font-weight="normal" font-size="none" text-anchor="start" mix-blend-mode="normal"><g id="Capa_1" fill="#000000" stroke="none" stroke-width="1" stroke-miterlimit="4" font-family="&quot;Open Sans&quot;, sans-serif" font-size="14"><g id="g4195"><g id="g4197"><g id="g4791"><g id="g4203"></g></g></g></g><g id="g4213"></g><g id="g4215"></g><g id="g4217"></g><g id="g4219"></g><g id="g4221"></g><g id="g4223"></g><g id="g4225"></g><g id="g4227"></g><g id="g4229"></g><g id="g4231"></g><g id="g4233"></g><g id="g4235"></g><g id="g4237"></g><g id="g4239"></g><g id="g4241"></g></g><g id="Capa_1" fill="#000000" stroke="none" stroke-width="1" stroke-miterlimit="4" font-family="&quot;Open Sans&quot;, sans-serif" font-size="14"><g id="g3"><g id="g5"><g id="g11"></g></g><g id="g4191"></g></g><g id="g21"></g><g id="g23"></g><g id="g25"></g><g id="g27"></g><g id="g29"></g><g id="g31"></g><g id="g33"></g><g id="g35"></g><g id="g37"></g><g id="g39"></g><g id="g41"></g><g id="g43"></g><g id="g45"></g><g id="g47"></g><g id="g49"></g></g><g id="Capa_1" fill="#000000" stroke="none" stroke-width="1" stroke-miterlimit="4" font-family="&quot;Open Sans&quot;, sans-serif" font-size="14"><g><g><g></g></g></g><g></g><g></g><g></g><g></g><g></g><g></g><g></g><g></g><g></g><g></g><g></g><g></g><g></g><g></g><g></g></g><path d="M5,45c-1.10457,0 -2,-0.89543 -2,-2l0,-38c0,-1.10457 0.89543,-2 2,-2l38,0c1.10457,0 2,0.89543 2,2l0,38c0,1.10457 -0.89543,2 -2,2z" fill="#512da8" stroke-width="1" stroke-miterlimit="10" font-family="sans-serif" font-size="12" filter="url(#dropshadow)"></path><path d="M22.52358,45c0,0 -6.6672,-6.6672 -6.6672,-6.6672c0.0018,0.0018 0.00361,0.0036 0.00541,0.0054l-0.0054,-0.0054c-0.74152,-0.74151 -1.20099,-1.76515 -1.20099,-2.89382l-0.00001,-0.00001l0,-15.36916l0.94146,0.94146l0,-0.00001l-0.94146,-0.94146l0,0.00001l-1.44733,-1.44733c0.00156,0.00156 0.00313,0.00313 0.0047,0.00469l-0.00469,-0.00469c-0.556,-0.556 -0.90077,-1.32164 -0.90077,-2.16876l-0.00001,-0.00001c0,-1.70214 1.38699,-3.08729 3.08913,-3.08729l0.22433,0c0.31633,-2.78292 2.64819,-4.90031 5.49607,-4.90031l0.00001,0.00001c1.4813,0 2.88426,0.59237 3.91441,1.62252c0,0 0.00627,0.00627 0.00627,0.00627c-0.00209,-0.00209 -0.00417,-0.00418 -0.00626,-0.00627l0.44644,0.44644c0.44803,-0.1854 0.91433,-0.27984 1.38712,-0.27984c1.02621,0 1.95882,0.41591 2.63532,1.09241c0,0 2.14012,2.14012 2.14012,2.14012c0.50461,0.14743 0.95624,0.42051 1.31858,0.78285l0.00472,0.00472c-0.00156,-0.00156 -0.00311,-0.00312 -0.00467,-0.00468l12.04112,12.04112l0,16.68822c0,1.10457 -0.89543,2 -2,2z" fill="url(#color-1)" stroke-width="1" stroke-miterlimit="10" font-family="sans-serif" font-size="12"></path><path d="M25.44343,10.54943c0.45849,-0.19488 0.93652,-0.2942 1.42137,-0.2942c1.83771,0 3.37528,1.33378 3.67937,3.10935l0.23168,0c1.70308,0 3.08913,1.38699 3.08913,3.08913c0,1.44564 -1.00369,2.65369 -2.3481,2.98799l0,3.36678l1.51698,0c1.46583,0 2.65885,1.19302 2.65885,2.65885l0,4.41855c0,1.46583 -1.19396,2.65702 -2.65885,2.65702l-1.51698,0l0,2.89789c0,2.25665 -1.83644,4.09309 -4.09309,4.09309l-8.67345,0c-2.25665,0 -4.09493,-1.83734 -4.09493,-4.09493l0,-15.99726c-1.34423,-0.33423 -2.3481,-1.54248 -2.3481,-2.98799c0,-1.70214 1.38699,-3.08729 3.08913,-3.08729l0.22433,0c0.31633,-2.78292 2.64819,-4.90031 5.49607,-4.90031c1.6899,0 3.27784,0.77094 4.32661,2.08332z M15.59684,35.4408c0,1.73885 1.41463,3.15348 3.15348,3.15348l8.67345,0c1.73885,0 3.15164,-1.41463 3.15164,-3.15348l0,-15.89796l-14.97858,0z M16.5291,13.85186c-0.00847,0.25419 -0.21653,0.45417 -0.47072,0.45417l-0.66196,0c-1.18434,0 -2.14768,0.96334 -2.14768,2.14768c0,1.18434 0.96334,2.14584 2.14768,2.14584l15.37943,0c1.18434,0 2.14768,-0.9615 2.14768,-2.14584c0,-1.18434 -0.96334,-2.14768 -2.14768,-2.14768l-0.65092,0c-0.25137,0 -0.45754,-0.19545 -0.47072,-0.44682c-0.0772,-1.49314 -1.30192,-2.66253 -2.78941,-2.66253c-0.4566,0 -0.90834,0.12131 -1.34046,0.35856c-0.20994,0.11674 -0.47858,0.05338 -0.61415,-0.14526c-0.85954,-1.25307 -2.27764,-2.00242 -3.79337,-2.00242c-2.49107,0 -4.50581,1.95134 -4.58772,4.44429z M31.51687,31.60145l1.51698,0c0.94615,0 1.71741,-0.76941 1.71741,-1.71557l0,-4.41855c0,-0.9471 -0.77125,-1.71741 -1.71741,-1.71741l-1.51698,0z M27.46791,23.23875l0,11.46102c0,0.26078 -0.21088,0.47072 -0.47072,0.47072c-0.25984,0 -0.47072,-0.21088 -0.47072,-0.47072l0,-11.46102c0,-0.25984 0.21088,-0.47072 0.47072,-0.47072c0.25984,0 0.47072,0.21088 0.47072,0.47072z M19.64764,23.23875l0,11.46102c0,0.26078 -0.21088,0.47072 -0.47072,0.47072c-0.25984,0 -0.47072,-0.21088 -0.47072,-0.47072l0,-11.46102c0,-0.25984 0.21088,-0.47072 0.47072,-0.47072c0.25984,0 0.47072,0.21088 0.47072,0.47072z M23.55686,23.23875l0,11.46102c0,0.26078 -0.20994,0.47072 -0.47072,0.47072c-0.25984,0 -0.47072,-0.21088 -0.47072,-0.47072l0,-11.46102c0,-0.25984 0.21088,-0.47072 0.47072,-0.47072c0.25984,0 0.47072,0.21088 0.47072,0.47072z" fill="#ffffff" stroke="none" stroke-width="0" stroke-miterlimit="4" font-family="&quot;Open Sans&quot;, sans-serif" font-size="14"></path></g></svg>